<?xml version="1.0" encoding="UTF-8" standalone="no"?>
<!-- Created with Inkscape (http://www.inkscape.org/) -->

<svg
   width="529.16669mm"
   height="430.74167mm"
   viewBox="0 0 529.16669 430.74167"
   version="1.1"
   id="svg1"
   xml:space="preserve"
   inkscape:version="1.4.2 (f4327f4, 2025-05-13)"
   sodipodi:docname="catastrophe_regions_rev2.svg"
   xmlns:inkscape="http://www.inkscape.org/namespaces/inkscape"
   xmlns:sodipodi="http://sodipodi.sourceforge.net/DTD/sodipodi-0.dtd"
   xmlns:xlink="http://www.w3.org/1999/xlink"
   xmlns="http://www.w3.org/2000/svg"
   xmlns:svg="http://www.w3.org/2000/svg"><sodipodi:namedview
     id="namedview1"
     pagecolor="#ffffff"
     bordercolor="#000000"
     borderopacity="0.25"
     inkscape:showpageshadow="2"
     inkscape:pageopacity="0.0"
     inkscape:pagecheckerboard="0"
     inkscape:deskcolor="#d1d1d1"
     inkscape:document-units="mm"
     inkscape:zoom="0.35945918"
     inkscape:cx="1274.1363"
     inkscape:cy="777.55701"
     inkscape:window-width="1920"
     inkscape:window-height="1009"
     inkscape:window-x="1432"
     inkscape:window-y="765"
     inkscape:window-maximized="1"
     inkscape:current-layer="layer1" /><defs
     id="defs1"><pattern
       inkscape:collect="always"
       xlink:href="#pattern34"
       preserveAspectRatio="xMidYMid"
       id="pattern35"
       patternTransform="matrix(0.4,0,0,0.4,513.01031,1328.4027)"
       x="0"
       y="0" /><pattern
       inkscape:collect="always"
       xlink:href="#pattern32"
       preserveAspectRatio="xMidYMid"
       id="pattern33"
       patternTransform="matrix(0.3,0,0,0.3,450.70745,1328.6005)"
       x="0"
       y="0" /><linearGradient
       id="swatch20"
       inkscape:swatch="solid"><stop
         style="stop-color:#c80000;stop-opacity:1;"
         offset="0"
         id="stop20" /></linearGradient><pattern
       patternUnits="userSpaceOnUse"
       width="55.663655"
       height="52.673172"
       patternTransform="translate(289.32354,1267.1814)"
       preserveAspectRatio="xMidYMid"
       id="pattern32"
       inkscape:label="pattern32"><rect
         style="fill:#c80000;fill-opacity:1;stroke:none;stroke-width:3.33333;stroke-dasharray:none;stroke-opacity:1"
         id="rect31"
         width="27.819571"
         height="26.428593"
         x="0"
         y="0" /><rect
         style="fill:#753b00;fill-opacity:1;stroke:none;stroke-width:3.33333;stroke-dasharray:none;stroke-opacity:1"
         id="rect31-4"
         width="27.819571"
         height="26.428593"
         x="27.844084"
         y="0.082008183" /><rect
         style="fill:#c80000;fill-opacity:1;stroke:none;stroke-width:3.33333;stroke-dasharray:none;stroke-opacity:1"
         id="rect31-7"
         width="27.819571"
         height="26.428593"
         x="27.725744"
         y="26.244579" /><rect
         style="fill:#753b00;fill-opacity:1;stroke:none;stroke-width:3.33333;stroke-dasharray:none;stroke-opacity:1"
         id="rect31-4-1"
         width="27.819571"
         height="26.428593"
         x="0.24400605"
         y="26.080677" /></pattern><pattern
       patternUnits="userSpaceOnUse"
       width="55.663655"
       height="52.673172"
       patternTransform="translate(289.32354,1267.1814)"
       preserveAspectRatio="xMidYMid"
       id="pattern32-2"
       inkscape:label="pattern32"><rect
         style="fill:#c80000;fill-opacity:1;stroke:none;stroke-width:3.33333;stroke-dasharray:none;stroke-opacity:1"
         id="rect31-76"
         width="27.819571"
         height="26.428593"
         x="0"
         y="0" /><rect
         style="fill:#753b00;fill-opacity:1;stroke:none;stroke-width:3.33333;stroke-dasharray:none;stroke-opacity:1"
         id="rect31-4-14"
         width="27.819571"
         height="26.428593"
         x="27.844084"
         y="0.082008183" /><rect
         style="fill:#c80000;fill-opacity:1;stroke:none;stroke-width:3.33333;stroke-dasharray:none;stroke-opacity:1"
         id="rect31-7-2"
         width="27.819571"
         height="26.428593"
         x="27.725744"
         y="26.244579" /><rect
         style="fill:#753b00;fill-opacity:1;stroke:none;stroke-width:3.33333;stroke-dasharray:none;stroke-opacity:1"
         id="rect31-4-1-3"
         width="27.819571"
         height="26.428593"
         x="0.24400605"
         y="26.080677" /></pattern><pattern
       patternUnits="userSpaceOnUse"
       width="55.388496"
       height="53.132588"
       patternTransform="translate(351.6264,1266.9836)"
       preserveAspectRatio="xMidYMid"
       id="pattern34"
       inkscape:label="pattern34"><rect
         style="fill:#525253;fill-opacity:1;stroke:none;stroke-width:3.33333;stroke-dasharray:none;stroke-opacity:1"
         id="rect34"
         width="27.53997"
         height="26.5564"
         x="0"
         y="0.10080893" /><rect
         style="fill:#853d7d;fill-opacity:1;stroke:none;stroke-width:3.33333;stroke-dasharray:none;stroke-opacity:1"
         id="rect34-5"
         width="27.53997"
         height="26.5564"
         x="27.604692"
         y="0" /><rect
         style="fill:#853d7d;fill-opacity:1;stroke:none;stroke-width:3.33333;stroke-dasharray:none;stroke-opacity:1"
         id="rect34-8"
         width="27.53997"
         height="26.5564"
         x="0.24383305"
         y="26.576187" /><rect
         style="fill:#525253;fill-opacity:1;stroke:none;stroke-width:3.33333;stroke-dasharray:none;stroke-opacity:1"
         id="rect34-5-9"
         width="27.53997"
         height="26.5564"
         x="27.848526"
         y="26.475378" /></pattern></defs><g
     inkscape:label="Map"
     inkscape:groupmode="layer"
     id="layer1"
     style="display:inline;opacity:1"
     sodipodi:insensitive="true"><path
       style="fill:#c80000;fill-opacity:1;stroke:#000000;stroke-width:0.881944;stroke-dasharray:none;stroke-opacity:1"
       d="m 30.733351,30.872668 1.47212,12.513011 -16.1933,-2.576208 -1.84015,6.256505 6.2565,12.881041 v 8.096654 l -1.10409,33.490709 -4.04832,5.15241 2.20817,12.14498 37.90707,1.10409 0.36803,33.49071 47.843859,45.26766 3.31227,7.72863 -3.31227,10.67286 -1.10409,8.09665 30.17844,12.14498 19.13755,0.36803 0.73606,-60.35687 -43.42751,-0.36803 0.36803,-57.04462 25.02602,-0.36803 0.36803,-35.69888 61.09294,-0.36803 -0.73606,-51.156132 z"
       id="Fire"
       inkscape:label="Fire" /><path
       style="fill:url(#pattern33);fill-opacity:1;stroke:#000000;stroke-width:0.881944;stroke-dasharray:none;stroke-opacity:1"
       d="m 53.183171,119.93586 -35.69889,0.36803 2.57621,11.0409 -3.31227,9.20074 4.41636,5.15242 1.10409,9.20074 7.72862,11.77695 5.15242,-2.20817 3.31227,7.72862 -4.04833,2.20818 1.84015,4.41636 4.41636,1.47211 -1.10409,4.41636 6.99256,9.20075 4.78439,5.52044 v 5.88848 h 8.46468 l 10.304835,5.15241 4.784387,4.41636 4.784386,4.41636 0.36803,4.78438 20.977701,-1.10409 5.15241,-16.56133 -3.6803,-7.3606 -47.843859,-45.26766 z"
       id="CA"
       inkscape:label="CA"
       sodipodi:nodetypes="cccccccccccccccccccccccccc" /><path
       style="fill:#d9f300;fill-opacity:1;stroke:#000000;stroke-width:0.881944;stroke-dasharray:none;stroke-opacity:1"
       d="m 196.34674,31.976758 0.73606,52.628251 -61.46097,-0.368029 -1.10409,36.43495 -24.28996,0.36802 0.36803,54.46841 42.32342,1.47212 -1.47212,61.46096 8.09665,0.36803 -0.73606,-5.88847 13.6171,-1.10409 0.73606,-2.57621 31.28253,0.73606 1.10409,-53.36431 9.20074,-0.36803 -0.73606,-44.16357 -17.66542,-1.10409 0.36803,-22.81785 h 49.31598 l 4.04833,2.20818 3.68029,-1.47212 7.3606,3.6803 2.20818,-7.36059 -1.47212,-2.94424 2.20818,-2.20818 -1.10409,-20.977697 -2.94424,-4.048327 2.94424,-4.048327 -6.25651,-39.747211 z"
       id="Hail_West"
       inkscape:label="Hail_West" /><path
       style="fill:#ffffff;fill-opacity:1;stroke:#000000;stroke-width:0.881944;stroke-dasharray:none;stroke-opacity:1"
       d="m 257.8077,31.608728 h 17.2974 l 10.67286,6.256505 8.09666,-0.36803 8.83271,2.576208 4.04832,3.680298 6.62454,-1.840149 4.78439,2.208178 5.52044,1.840149 -19.8736,14.72119 9.20074,-1.10409 4.04833,5.152417 16.92937,-8.096654 4.41635,-4.416357 -2.57621,6.256505 4.78439,1.472119 4.78439,4.416357 6.99256,-0.36803 5.52045,-2.208178 8.09665,-0.73606 0.73606,5.152417 4.41636,-1.472119 1.10409,6.624535 -5.15242,-0.36803 4.04833,4.416357 9.20074,7.728624 -1.10409,9.568774 -4.41635,6.992565 9.20074,-4.784386 2.94424,9.936807 -0.36803,7.72862 -5.52045,7.72862 -8.09665,2.94424 -20.60967,-0.36803 1.10409,-9.56877 -1.47212,-13.985131 2.57621,-8.096655 3.6803,-6.624535 5.88847,-6.992565 -3.68029,-7.360594 -14.35316,6.256505 -3.31227,6.992565 -1.47212,14.721188 -1.84015,14.353162 -24.28996,1.47212 -3.6803,-3.31227 -0.36803,-8.09665 -46.37174,-0.73606 -0.36803,-23.553906 -3.6803,-3.312268 3.6803,-4.416356 z"
       id="Snow_West"
       inkscape:label="Snow_West" /><path
       style="fill:#525253;fill-opacity:1;stroke:#000000;stroke-width:0.881944;stroke-dasharray:none;stroke-opacity:1"
       d="m 206.65157,182.50092 25.76208,0.73606 -0.73606,22.08179 15.45725,3.68029 5.88848,2.20818 9.9368,0.73606 1.10409,1.10409 9.9368,-2.57621 6.2565,4.04833 4.78439,0.36803 v 5.15242 l 25.76208,-0.36803 0.36803,-11.77696 6.99257,-8.09665 6.2565,-16.56134 4.04833,-2.57621 v -5.15241 l 6.62453,-1.10409 2.57621,-5.15242 5.15242,-12.51301 v -32.75465 l -4.41636,-10.30483 -22.81784,0.73606 -5.15242,-4.04833 -0.36803,-6.99256 -44.53159,-0.36803 -1.84015,0.73606 v 4.78438 l -2.20818,4.41636 -6.62454,-2.94424 -6.2565,2.57621 -3.31227,-3.6803 h -47.47583 l -0.73606,21.34573 18.03345,1.10409 v 45.26766 l -8.09665,0.73606 z"
       id="Tornado"
       inkscape:label="Tornado" /><path
       style="fill:url(#pattern35);fill-opacity:1;stroke:#000000;stroke-width:0.881944;stroke-dasharray:none;stroke-opacity:1"
       d="m 173.89692,232.921 13.24907,12.88104 3.31227,8.83271 13.6171,6.62454 2.57621,-6.99257 13.6171,-1.10409 16.19331,23.55391 2.5762,11.40892 11.0409,2.5762 6.2565,0.73606 0.73606,-18.40148 5.88848,-5.15242 9.9368,-5.88847 3.6803,-6.62454 9.20074,-1.10409 4.41636,-11.77695 -5.52045,-23.18587 -2.57621,-4.04833 -9.20074,-3.6803 -8.83271,2.57621 -32.38662,-8.83271 0.36803,-21.34573 -25.76208,-0.36803 v 47.47584 z"
       id="TX"
       inkscape:label="TX" /><path
       style="fill:#7a00ec;fill-opacity:1;stroke:#000000;stroke-width:0.881944;stroke-dasharray:none;stroke-opacity:1"
       d="m 342.08651,241.75371 1.47212,6.25651 h 10.67286 l 8.46468,6.99256 9.56878,-3.6803 12.14498,11.0409 v 10.67286 l 6.99256,13.98513 6.62454,9.56877 5.52045,3.6803 5.15241,-15.08922 -5.15241,-15.45725 -8.83272,-26.86617 -4.04833,1.10409 -0.73605,2.20818 -25.39406,-2.57621 -0.36803,-2.94424 z"
       id="Hurricane_Florida"
       inkscape:label="Hurricane_Florida" /><path
       style="fill:#853d7d;fill-opacity:1;stroke:#000000;stroke-width:0.881944;stroke-dasharray:none;stroke-opacity:1"
       d="m 319.6367,199.79832 49.68401,-0.36803 5.52045,-5.52044 8.09665,-4.78439 10.30483,-6.62454 -12.51301,-1.10409 8.46469,-8.46468 6.62453,2.20818 8.09666,-2.57621 8.46468,-12.88104 2.57621,1.84015 9.56877,-9.93681 4.78439,-0.36803 5.88846,5.15242 0.36804,6.25651 5.88849,3.6803 -0.73607,9.56877 -2.5762,-1.84015 0.36801,3.6803 5.88849,2.20817 0.73607,7.3606 -6.99257,1.10409 7.72861,2.57621 -1.84015,4.78438 -5.15242,0.73606 -0.73604,3.31227 1.10408,2.94424 -12.51302,6.2565 -0.73604,2.20818 -5.52046,0.36803 -4.78438,9.56878 -11.40892,6.2565 -8.46469,14.35316 h -4.78439 l -2.20817,3.6803 -23.55391,-2.94424 -1.10409,-2.94424 -21.71375,1.47212 1.47212,8.09666 -2.20818,0.36803 -4.04833,-4.78439 -1.47212,5.15241 -10.30483,-0.73605 h -7.36059 v 2.94423 l 6.2565,1.84015 -0.36803,4.04833 -4.41635,-1.84015 -0.73606,3.6803 -9.56878,0.73606 -5.52044,-7.72863 -3.31227,4.04833 -14.35316,-2.57621 4.41636,-12.51301 -5.15242,-21.71375 25.39405,-0.36803 v -11.0409 z"
       id="Hurricane_Other"
       inkscape:label="Hurricane_Other" /><path
       style="fill:#d9f300;fill-opacity:1;stroke:#000000;stroke-width:0.881944;stroke-dasharray:none;stroke-opacity:1"
       d="m 405.75565,120.30389 -1.10408,26.13011 7.36059,0.73606 0.73606,5.15242 11.40892,-1.84015 -8.83271,9.93681 -3.31227,-2.57621 -9.9368,14.35316 -8.46469,1.47212 -6.62453,-0.36803 -6.99257,7.72862 11.77695,1.84015 -19.8736,11.77695 -3.31227,3.6803 -47.47583,-0.36803 5.15241,-14.72119 3.6803,-1.47212 v -5.15241 l 7.36059,-1.47212 6.99257,-18.40149 0.36803,-31.28253 6.2565,-1.84015 h 27.97026 l 9.20075,3.6803 z"
       id="Hail_East"
       inkscape:label="Hail_East" /><path
       style="fill:#00009b;fill-opacity:1;stroke:#000000;stroke-width:0.881944;stroke-dasharray:none;stroke-opacity:1"
       d="m 467.21663,84.23698 1.10408,25.76208 -1.47212,11.04089 v 8.46469 l 10.67287,1.10409 v 3.68029 l -11.77695,3.31227 -2.57622,-2.20818 -2.57619,12.88104 -6.25653,6.62454 -2.20818,9.56878 -6.99254,12.14498 -1.84015,-13.98513 -2.20819,1.84015 -5.15242,-2.94424 -0.73607,-5.88848 -5.88846,-5.88848 -15.82528,1.10409 -2.20818,-6.2565 -5.88848,0.73606 0.36803,-25.02603 12.14499,-9.56877 0.36802,-6.62453 15.45725,0.73606 9.20075,-4.04833 v -5.520447 l 0.73605,-4.416359 10.67286,-6.992564 z"
       id="Flood"
       inkscape:label="Flood" /><path
       style="fill:#ffffff;fill-opacity:1;stroke:#000000;stroke-width:0.881944;stroke-dasharray:none;stroke-opacity:1"
       d="m 502.54747,53.690512 -5.88846,7.728624 -2.20819,8.832714 1.47212,1.840148 -5.88849,4.784387 -0.73604,2.576208 h -4.04834 l -2.94423,4.048327 -14.7212,-0.36803 1.47214,27.2342 -1.10411,8.83271 v 9.93681 l 17.2974,-1.47212 4.41637,-1.47212 2.20816,2.20818 2.94426,-4.41636 h 2.5762 l -8.46469,-9.56877 2.94423,-2.57621 -0.73604,-5.15242 5.88846,-8.832709 5.15242,0.368027 4.41637,-6.992564 5.15241,1.840148 12.88103,-5.888475 -3.31226,-8.096654 -2.94423,1.10409 v -3.680298 l -1.84015,-2.944238 0.36803,-17.665427 -2.94426,-3.680297 -8.09664,4.048327 z"
       id="Snow_East"
       inkscape:label="Snow_East" /><path
       style="fill:#c80000;fill-opacity:1;stroke:#000000;stroke-width:0.881944;stroke-dasharray:none;stroke-opacity:1"
       d="m 477.15343,419.51207 2.57619,-2.94423 9.93682,-9.56877 6.2565,-1.1041 6.99257,-4.78438 -5.15242,-7.36061 -2.57622,-0.36803 0.73607,-4.04831 -5.52045,-4.41637 -13.98514,-6.2565 -6.99256,-1.10408 1.84015,7.36058 -4.04831,6.99256 -1.84015,2.57622 3.31226,3.68031 2.20819,7.72861 -0.73607,6.99256 z"
       id="Hawaii_1"
       inkscape:label="Hawaii_1" /><path
       style="fill:#c80000;fill-opacity:1;stroke:#000000;stroke-width:0.881944;stroke-dasharray:none;stroke-opacity:1"
       d="m 446.975,347.74627 -2.94426,5.15242 -15.45725,-2.5762 0.36804,-4.7844 z"
       id="Hawaii_8"
       inkscape:label="Hawaii_8" /><path
       style="fill:#c80000;fill-opacity:1;stroke:#000000;stroke-width:0.881944;stroke-dasharray:none;stroke-opacity:1"
       d="m 447.71104,355.84292 5.88849,6.25652 0.73604,4.78438 8.09665,-1.47211 6.25652,-4.78438 -9.56879,-5.88849 -6.62453,0.73607 -4.04831,-4.41637 z"
       id="Hawaii_7"
       inkscape:label="Hawaii_7" /><path
       style="fill:#c80000;fill-opacity:1;stroke:#000000;stroke-width:0.881944;stroke-dasharray:none;stroke-opacity:1"
       d="m 410.90807,331.55298 5.52045,7.36057 0.73606,6.62454 -6.25651,-1.84015 h -4.41636 l -6.99256,-7.72862 4.78439,-0.73607 z"
       id="Hawaii_6"
       inkscape:label="Hawaii_6" /><path
       style="fill:#c80000;fill-opacity:1;stroke:#000000;stroke-width:0.881944;stroke-dasharray:none;stroke-opacity:1"
       d="m 371.16086,316.83178 -1.10409,7.36059 -4.78439,2.94424 -6.99256,-3.6803 -4.41636,-2.20818 2.20818,-5.15241 6.99256,-2.57621 z"
       id="Hawaii_4"
       inkscape:label="Hawaii_4" /><path
       style="fill:#c80000;fill-opacity:1;stroke:#000000;stroke-width:0.881944;stroke-dasharray:none;stroke-opacity:1"
       d="m 347.60696,320.51207 0.36803,5.88849 -4.41636,1.84013 -4.78439,-0.73605 z"
       id="Hawaii_3"
       inkscape:label="Hawaii_3" /><path
       style="fill:#c80000;fill-opacity:1;stroke:#000000;stroke-width:0.881944;stroke-dasharray:none;stroke-opacity:1"
       d="m 436.30213,357.31503 3.31227,3.3123 0.36803,1.47211 4.04831,-1.1041 -2.20816,-5.88847 z"
       id="Hawaii_2"
       inkscape:label="Hawaii_2" /><path
       style="fill:#753b00;fill-opacity:1;stroke:#000000;stroke-width:0.881944;stroke-dasharray:none;stroke-opacity:1"
       d="m 128.9973,273.40427 -9.93681,-8.83272 -6.99256,3.31227 -2.94424,-2.57621 -15.45725,-3.68029 -9.200745,1.47211 -2.576208,-4.41635 0.73606,-2.20818 -5.888476,-1.47212 -4.048326,2.57621 -1.472118,-4.04833 -6.256507,-3.31227 -8.832709,7.72863 -2.57621,-2.20818 -9.9368,8.09665 -5.88848,8.83272 -0.36803,4.04833 -11.77695,4.04832 -0.36803,4.78439 8.83271,9.20074 2.20818,4.04833 7.3606,1.10409 0.36802,5.52044 2.20818,3.31227 -8.83271,1.10409 -2.94424,-5.52044 -5.88847,1.47211 -2.20818,2.94424 -6.99257,3.6803 v 4.04833 l 3.6803,0.73606 1.47212,6.62453 7.36059,1.47212 4.41636,-2.20818 5.52045,1.47212 4.04832,-3.6803 2.57621,1.84015 -4.78438,2.94424 4.41635,6.99257 -6.62453,2.94423 -2.57621,3.6803 -5.52045,-3.31227 -4.78438,10.67287 -2.20818,6.62453 10.30483,6.2565 -6.99257,-1.47212 -0.36803,3.68031 6.62454,5.15241 5.15242,-3.31226 2.94423,4.41634 -0.73605,7.3606 5.88847,-2.57622 2.57621,2.20819 4.04833,-1.84015 0.73605,3.6803 7.360601,-2.94423 -4.784391,10.30483 -4.04832,3.31227 -6.62454,6.99256 -4.41636,0.73605 -7.36059,6.99257 -4.78439,0.73607 -0.73606,3.6803 5.52045,-0.73607 8.46468,-5.88846 2.20818,-1.10411 10.30483,-3.31227 v -3.6803 l 9.936807,-8.83271 9.936803,-9.20073 -3.312266,-2.57622 8.832712,-12.14499 6.256507,-5.52042 5.888474,4.04831 -8.832712,2.57622 -1.104091,8.46468 9.200743,-4.04833 3.680298,-0.73605 2.208184,-6.25652 4.78438,-1.47212 12.14498,8.83272 8.83272,-0.73607 5.88847,3.6803 10.30484,7.72864 4.78438,3.31227 23.18587,24.28996 3.6803,-7.3606 -7.72862,-6.62453 -14.35316,-21.34574 -4.78439,3.6803 -11.04089,-6.62453 -5.88848,-5.52045 -2.94423,-20.60967 z"
       id="Alaska"
       inkscape:label="Alaska" /></g><g
     inkscape:groupmode="layer"
     id="layer2"
     inkscape:label="Actual"
     style="display:inline"
     transform="translate(161.38391,61.419136)" /></svg>
